<?xml version="1.0" standalone="no"?>
<!DOCTYPE svg PUBLIC "-//W3C//DTD SVG 20010904//EN"
 "http://www.w3.org/TR/2001/REC-SVG-20010904/DTD/svg10.dtd">
<svg version="1.0" xmlns="http://www.w3.org/2000/svg"
 width="669.000000pt" height="669.000000pt" viewBox="0 0 669.000000 669.000000"
 preserveAspectRatio="xMidYMid meet">
<metadata>
Created by potrace 1.14, written by Peter Selinger 2001-2017
</metadata>
<g transform="translate(0.000000,669.000000) scale(0.100000,-0.100000)"
fill="#000000" stroke="none">
<path d="M1852 4239 c-411 -63 -854 -304 -1181 -643 -51 -54 -97 -94 -101 -89
-4 4 -54 73 -110 152 l-103 143 -66 -6 c-36 -3 -117 -8 -178 -12 -62 -4 -113
-8 -113 -10 0 -2 94 -136 209 -298 184 -259 205 -293 175 -278 -21 9 -37 12
-42 6 -17 -19 -254 -726 -248 -740 5 -13 25 -15 143 -9 179 8 197 11 233 42
42 35 69 92 124 263 76 234 245 557 414 794 79 109 248 284 350 361 212 159
490 261 805 297 80 9 103 15 90 22 -24 13 -323 17 -401 5z"/>
<path d="M2507 3553 c-8 -13 -77 -232 -77 -243 0 -7 161 -10 480 -10 386 0
480 -3 480 -13 0 -7 -13 -51 -28 -97 l-29 -85 -488 -5 -488 -5 -98 -300 c-54
-165 -101 -310 -104 -322 l-5 -23 160 0 160 0 62 195 62 195 416 0 c414 0 415
0 465 24 59 27 108 73 135 126 33 64 140 405 140 444 0 46 -21 88 -54 110 -23
14 -83 16 -605 16 -319 0 -582 -3 -584 -7z"/>
<path d="M4105 3551 c-83 -21 -156 -72 -194 -134 -10 -18 -73 -200 -140 -406
-133 -412 -140 -447 -96 -500 52 -61 60 -62 585 -59 l475 3 56 28 c31 15 77
49 102 76 44 47 48 57 167 422 68 206 125 395 128 421 6 59 -22 108 -76 134
-34 18 -71 19 -507 21 -258 1 -483 -2 -500 -6z m732 -263 c-2 -7 -46 -140 -96
-295 l-92 -283 -324 0 c-179 0 -325 2 -325 3 0 4 176 550 185 575 3 9 79 12
331 12 257 0 325 -3 321 -12z"/>
<path d="M5475 3531 c-96 -55 -117 -89 -185 -298 -69 -214 -74 -264 -35 -311
40 -48 77 -52 499 -52 303 0 386 -3 385 -12 0 -7 -10 -42 -22 -78 l-22 -65
-487 -3 -486 -2 -41 -123 c-23 -67 -41 -125 -41 -130 0 -4 261 -7 580 -7 568
0 582 0 621 21 23 11 61 39 85 61 41 38 47 50 109 238 68 208 74 240 51 295
-29 69 -32 70 -492 73 l-412 3 20 67 c11 37 25 73 30 80 8 9 119 12 492 12
l482 0 38 118 c21 64 41 123 43 130 4 9 -116 12 -578 12 l-584 0 -50 -29z"/>
<path d="M1183 3325 c-121 -34 -197 -97 -249 -205 -53 -110 -157 -438 -157
-496 0 -69 25 -109 88 -139 171 -83 406 0 496 177 21 42 59 144 59 160 0 4
-56 8 -124 8 l-124 0 -23 -67 c-31 -95 -55 -140 -80 -148 -43 -14 -43 9 1 139
l41 126 167 2 166 3 34 105 c43 130 49 223 16 267 -52 70 -193 101 -311 68z
m79 -170 c-1 -11 -10 -46 -19 -77 -16 -56 -18 -58 -50 -58 -18 0 -33 2 -33 5
0 7 49 135 56 146 3 6 16 9 27 7 16 -2 21 -9 19 -23z"/>
<path d="M1815 3327 c-136 -36 -204 -106 -249 -256 -34 -115 -17 -150 114
-247 l92 -67 -6 -40 c-4 -21 -13 -52 -21 -67 -14 -26 -49 -45 -67 -34 -12 8
-10 47 7 94 8 23 15 47 15 52 0 5 -52 7 -117 6 l-117 -3 -18 -55 c-26 -84 -23
-152 7 -188 91 -108 376 -83 481 41 56 66 112 227 99 285 -7 34 -59 86 -131
130 -74 47 -98 75 -90 109 13 56 29 83 52 89 38 10 44 -2 28 -57 -8 -28 -14
-55 -12 -61 6 -17 219 -13 230 4 13 21 38 114 38 143 0 42 -30 83 -78 106 -54
27 -185 34 -257 16z"/>
</g>
</svg>
